<mxfile host="app.diagrams.net" modified="2024-05-06T03:42:47.656Z" agent="Mozilla/5.0 (Macintosh; Intel Mac OS X 10_15_7) AppleWebKit/537.36 (KHTML, like Gecko) Chrome/124.0.0.0 Safari/537.36" etag="JEsCLzG_gl7jX3-q8gG6" version="24.3.1" type="device">
  <diagram id="C5RBs43oDa-KdzZeNtuy" name="Page-1">
    <mxGraphModel dx="844" dy="463" grid="1" gridSize="10" guides="1" tooltips="1" connect="1" arrows="1" fold="1" page="1" pageScale="1" pageWidth="827" pageHeight="1169" math="0" shadow="0">
      <root>
        <mxCell id="WIyWlLk6GJQsqaUBKTNV-0" />
        <mxCell id="WIyWlLk6GJQsqaUBKTNV-1" parent="WIyWlLk6GJQsqaUBKTNV-0" />
        <mxCell id="msSPid0JsDmmfoOq0OmQ-4" style="edgeStyle=orthogonalEdgeStyle;rounded=0;orthogonalLoop=1;jettySize=auto;html=1;entryX=0.5;entryY=0;entryDx=0;entryDy=0;" parent="WIyWlLk6GJQsqaUBKTNV-1" source="WIyWlLk6GJQsqaUBKTNV-3" target="msSPid0JsDmmfoOq0OmQ-1" edge="1">
          <mxGeometry relative="1" as="geometry" />
        </mxCell>
        <mxCell id="WIyWlLk6GJQsqaUBKTNV-3" value="Original Camera Input" style="rounded=1;whiteSpace=wrap;html=1;fontSize=12;glass=0;strokeWidth=1;shadow=0;" parent="WIyWlLk6GJQsqaUBKTNV-1" vertex="1">
          <mxGeometry x="160" y="120" width="120" height="40" as="geometry" />
        </mxCell>
        <mxCell id="WIyWlLk6GJQsqaUBKTNV-4" value="Yes" style="rounded=0;html=1;jettySize=auto;orthogonalLoop=1;fontSize=11;endArrow=block;endFill=0;endSize=8;strokeWidth=1;shadow=0;labelBackgroundColor=none;edgeStyle=orthogonalEdgeStyle;" parent="WIyWlLk6GJQsqaUBKTNV-1" target="WIyWlLk6GJQsqaUBKTNV-10" edge="1">
          <mxGeometry y="20" relative="1" as="geometry">
            <mxPoint as="offset" />
            <mxPoint x="220" y="250" as="sourcePoint" />
          </mxGeometry>
        </mxCell>
        <mxCell id="WIyWlLk6GJQsqaUBKTNV-8" value="No" style="rounded=0;html=1;jettySize=auto;orthogonalLoop=1;fontSize=11;endArrow=block;endFill=0;endSize=8;strokeWidth=1;shadow=0;labelBackgroundColor=none;edgeStyle=orthogonalEdgeStyle;exitX=1;exitY=0.5;exitDx=0;exitDy=0;" parent="WIyWlLk6GJQsqaUBKTNV-1" source="ZLk9EBdEhvnJCrL4KYB7-5" target="ZLk9EBdEhvnJCrL4KYB7-6" edge="1">
          <mxGeometry x="-0.4741" y="20" relative="1" as="geometry">
            <mxPoint as="offset" />
            <mxPoint x="740" y="309.9999999999999" as="sourcePoint" />
            <mxPoint x="750" y="450" as="targetPoint" />
            <Array as="points">
              <mxPoint x="750" y="460" />
              <mxPoint x="750" y="460" />
            </Array>
          </mxGeometry>
        </mxCell>
        <mxCell id="WIyWlLk6GJQsqaUBKTNV-9" value="Yes" style="edgeStyle=orthogonalEdgeStyle;rounded=0;html=1;jettySize=auto;orthogonalLoop=1;fontSize=11;endArrow=block;endFill=0;endSize=8;strokeWidth=1;shadow=0;labelBackgroundColor=none;" parent="WIyWlLk6GJQsqaUBKTNV-1" source="WIyWlLk6GJQsqaUBKTNV-10" target="WIyWlLk6GJQsqaUBKTNV-12" edge="1">
          <mxGeometry y="10" relative="1" as="geometry">
            <mxPoint as="offset" />
          </mxGeometry>
        </mxCell>
        <mxCell id="WIyWlLk6GJQsqaUBKTNV-10" value="OOD Detector" style="rhombus;whiteSpace=wrap;html=1;shadow=0;fontFamily=Helvetica;fontSize=12;align=center;strokeWidth=1;spacing=6;spacingTop=-4;" parent="WIyWlLk6GJQsqaUBKTNV-1" vertex="1">
          <mxGeometry x="170" y="280" width="100" height="60" as="geometry" />
        </mxCell>
        <mxCell id="WIyWlLk6GJQsqaUBKTNV-11" value="LBC" style="rounded=1;whiteSpace=wrap;html=1;fontSize=12;glass=0;strokeWidth=1;shadow=0;" parent="WIyWlLk6GJQsqaUBKTNV-1" vertex="1">
          <mxGeometry x="160" y="490" width="120" height="40" as="geometry" />
        </mxCell>
        <mxCell id="msSPid0JsDmmfoOq0OmQ-5" style="edgeStyle=orthogonalEdgeStyle;rounded=0;orthogonalLoop=1;jettySize=auto;html=1;entryX=0.5;entryY=0;entryDx=0;entryDy=0;" parent="WIyWlLk6GJQsqaUBKTNV-1" source="WIyWlLk6GJQsqaUBKTNV-12" target="msSPid0JsDmmfoOq0OmQ-3" edge="1">
          <mxGeometry relative="1" as="geometry" />
        </mxCell>
        <mxCell id="WIyWlLk6GJQsqaUBKTNV-12" value="Improve Perception Module" style="rounded=1;whiteSpace=wrap;html=1;fontSize=12;glass=0;strokeWidth=1;shadow=0;fillColor=#f8cecc;strokeColor=#b85450;" parent="WIyWlLk6GJQsqaUBKTNV-1" vertex="1">
          <mxGeometry x="294" y="350" width="120" height="40" as="geometry" />
        </mxCell>
        <mxCell id="msSPid0JsDmmfoOq0OmQ-1" value="Modify Input" style="rounded=1;whiteSpace=wrap;html=1;" parent="WIyWlLk6GJQsqaUBKTNV-1" vertex="1">
          <mxGeometry x="160" y="190" width="120" height="60" as="geometry" />
        </mxCell>
        <mxCell id="msSPid0JsDmmfoOq0OmQ-6" style="edgeStyle=orthogonalEdgeStyle;rounded=0;orthogonalLoop=1;jettySize=auto;html=1;exitX=0.5;exitY=1;exitDx=0;exitDy=0;entryX=1;entryY=0.5;entryDx=0;entryDy=0;" parent="WIyWlLk6GJQsqaUBKTNV-1" source="msSPid0JsDmmfoOq0OmQ-3" target="WIyWlLk6GJQsqaUBKTNV-11" edge="1">
          <mxGeometry relative="1" as="geometry" />
        </mxCell>
        <mxCell id="msSPid0JsDmmfoOq0OmQ-3" value="Impose Safety Mode Rules" style="rounded=1;whiteSpace=wrap;html=1;fontSize=12;glass=0;strokeWidth=1;shadow=0;" parent="WIyWlLk6GJQsqaUBKTNV-1" vertex="1">
          <mxGeometry x="294" y="430" width="120" height="40" as="geometry" />
        </mxCell>
        <mxCell id="ZLk9EBdEhvnJCrL4KYB7-0" style="edgeStyle=orthogonalEdgeStyle;rounded=0;orthogonalLoop=1;jettySize=auto;html=1;entryX=0.5;entryY=0;entryDx=0;entryDy=0;" parent="WIyWlLk6GJQsqaUBKTNV-1" source="ZLk9EBdEhvnJCrL4KYB7-1" target="ZLk9EBdEhvnJCrL4KYB7-9" edge="1">
          <mxGeometry relative="1" as="geometry" />
        </mxCell>
        <mxCell id="ZLk9EBdEhvnJCrL4KYB7-1" value="Original Camera Input" style="rounded=1;whiteSpace=wrap;html=1;fontSize=12;glass=0;strokeWidth=1;shadow=0;" parent="WIyWlLk6GJQsqaUBKTNV-1" vertex="1">
          <mxGeometry x="490" y="120" width="120" height="40" as="geometry" />
        </mxCell>
        <mxCell id="ZLk9EBdEhvnJCrL4KYB7-4" value="Yes" style="edgeStyle=orthogonalEdgeStyle;rounded=0;html=1;jettySize=auto;orthogonalLoop=1;fontSize=11;endArrow=block;endFill=0;endSize=8;strokeWidth=1;shadow=0;labelBackgroundColor=none;entryX=0.5;entryY=0;entryDx=0;entryDy=0;exitX=0.5;exitY=1;exitDx=0;exitDy=0;" parent="WIyWlLk6GJQsqaUBKTNV-1" source="ZLk9EBdEhvnJCrL4KYB7-5" target="ZLk9EBdEhvnJCrL4KYB7-11" edge="1">
          <mxGeometry y="-10" relative="1" as="geometry">
            <mxPoint as="offset" />
            <mxPoint x="684" y="440" as="targetPoint" />
            <Array as="points">
              <mxPoint x="700" y="370" />
              <mxPoint x="625" y="370" />
            </Array>
          </mxGeometry>
        </mxCell>
        <mxCell id="ZLk9EBdEhvnJCrL4KYB7-5" value="OOD Detector" style="rhombus;whiteSpace=wrap;html=1;shadow=0;fontFamily=Helvetica;fontSize=12;align=center;strokeWidth=1;spacing=6;spacingTop=-4;" parent="WIyWlLk6GJQsqaUBKTNV-1" vertex="1">
          <mxGeometry x="650" y="280" width="100" height="60" as="geometry" />
        </mxCell>
        <mxCell id="ZLk9EBdEhvnJCrL4KYB7-6" value="Controller" style="rounded=1;whiteSpace=wrap;html=1;fontSize=12;glass=0;strokeWidth=1;shadow=0;" parent="WIyWlLk6GJQsqaUBKTNV-1" vertex="1">
          <mxGeometry x="490" y="500" width="270" height="40" as="geometry" />
        </mxCell>
        <mxCell id="Xcqqfk-apu4N4fvQ_mor-15" style="edgeStyle=orthogonalEdgeStyle;rounded=0;orthogonalLoop=1;jettySize=auto;html=1;exitX=0.5;exitY=1;exitDx=0;exitDy=0;entryX=0.5;entryY=0;entryDx=0;entryDy=0;" edge="1" parent="WIyWlLk6GJQsqaUBKTNV-1" source="ZLk9EBdEhvnJCrL4KYB7-9" target="Xcqqfk-apu4N4fvQ_mor-14">
          <mxGeometry relative="1" as="geometry" />
        </mxCell>
        <mxCell id="Xcqqfk-apu4N4fvQ_mor-17" style="edgeStyle=orthogonalEdgeStyle;rounded=0;orthogonalLoop=1;jettySize=auto;html=1;exitX=1;exitY=0.5;exitDx=0;exitDy=0;entryX=0.5;entryY=0;entryDx=0;entryDy=0;" edge="1" parent="WIyWlLk6GJQsqaUBKTNV-1" source="ZLk9EBdEhvnJCrL4KYB7-9" target="ZLk9EBdEhvnJCrL4KYB7-5">
          <mxGeometry relative="1" as="geometry" />
        </mxCell>
        <mxCell id="ZLk9EBdEhvnJCrL4KYB7-9" value="Modify Input" style="rounded=1;whiteSpace=wrap;html=1;" parent="WIyWlLk6GJQsqaUBKTNV-1" vertex="1">
          <mxGeometry x="490" y="190" width="120" height="60" as="geometry" />
        </mxCell>
        <mxCell id="Xcqqfk-apu4N4fvQ_mor-25" style="edgeStyle=orthogonalEdgeStyle;rounded=0;orthogonalLoop=1;jettySize=auto;html=1;exitX=0.5;exitY=1;exitDx=0;exitDy=0;entryX=0.5;entryY=0;entryDx=0;entryDy=0;" edge="1" parent="WIyWlLk6GJQsqaUBKTNV-1" source="ZLk9EBdEhvnJCrL4KYB7-11" target="ZLk9EBdEhvnJCrL4KYB7-6">
          <mxGeometry relative="1" as="geometry" />
        </mxCell>
        <mxCell id="ZLk9EBdEhvnJCrL4KYB7-11" value="Impose Safety Mode Rules" style="rounded=1;whiteSpace=wrap;html=1;fontSize=12;glass=0;strokeWidth=1;shadow=0;" parent="WIyWlLk6GJQsqaUBKTNV-1" vertex="1">
          <mxGeometry x="565" y="400" width="120" height="40" as="geometry" />
        </mxCell>
        <mxCell id="Xcqqfk-apu4N4fvQ_mor-0" style="edgeStyle=orthogonalEdgeStyle;rounded=0;orthogonalLoop=1;jettySize=auto;html=1;entryX=0.5;entryY=0;entryDx=0;entryDy=0;" edge="1" parent="WIyWlLk6GJQsqaUBKTNV-1" source="Xcqqfk-apu4N4fvQ_mor-1" target="Xcqqfk-apu4N4fvQ_mor-7">
          <mxGeometry relative="1" as="geometry" />
        </mxCell>
        <mxCell id="Xcqqfk-apu4N4fvQ_mor-1" value="Original Camera Input" style="rounded=1;whiteSpace=wrap;html=1;fontSize=12;glass=0;strokeWidth=1;shadow=0;" vertex="1" parent="WIyWlLk6GJQsqaUBKTNV-1">
          <mxGeometry x="1000" y="120" width="120" height="40" as="geometry" />
        </mxCell>
        <mxCell id="Xcqqfk-apu4N4fvQ_mor-4" value="Yes" style="edgeStyle=orthogonalEdgeStyle;rounded=0;html=1;jettySize=auto;orthogonalLoop=1;fontSize=11;endArrow=block;endFill=0;endSize=8;strokeWidth=1;shadow=0;labelBackgroundColor=none;entryX=0.5;entryY=0;entryDx=0;entryDy=0;" edge="1" parent="WIyWlLk6GJQsqaUBKTNV-1" source="Xcqqfk-apu4N4fvQ_mor-5" target="Xcqqfk-apu4N4fvQ_mor-9">
          <mxGeometry y="10" relative="1" as="geometry">
            <mxPoint as="offset" />
            <mxPoint x="1194" y="350" as="targetPoint" />
            <Array as="points">
              <mxPoint x="860" y="315" />
              <mxPoint x="860" y="400" />
            </Array>
          </mxGeometry>
        </mxCell>
        <mxCell id="Xcqqfk-apu4N4fvQ_mor-5" value="OOD Detector" style="rhombus;whiteSpace=wrap;html=1;shadow=0;fontFamily=Helvetica;fontSize=12;align=center;strokeWidth=1;spacing=6;spacingTop=-4;" vertex="1" parent="WIyWlLk6GJQsqaUBKTNV-1">
          <mxGeometry x="930" y="290" width="100" height="50" as="geometry" />
        </mxCell>
        <mxCell id="Xcqqfk-apu4N4fvQ_mor-10" style="edgeStyle=orthogonalEdgeStyle;rounded=0;orthogonalLoop=1;jettySize=auto;html=1;exitX=0.5;exitY=1;exitDx=0;exitDy=0;entryX=0.5;entryY=0;entryDx=0;entryDy=0;" edge="1" parent="WIyWlLk6GJQsqaUBKTNV-1" source="Xcqqfk-apu4N4fvQ_mor-7" target="Xcqqfk-apu4N4fvQ_mor-5">
          <mxGeometry relative="1" as="geometry" />
        </mxCell>
        <mxCell id="Xcqqfk-apu4N4fvQ_mor-12" style="edgeStyle=orthogonalEdgeStyle;rounded=0;orthogonalLoop=1;jettySize=auto;html=1;exitX=0.5;exitY=1;exitDx=0;exitDy=0;entryX=0.5;entryY=0;entryDx=0;entryDy=0;" edge="1" parent="WIyWlLk6GJQsqaUBKTNV-1" source="Xcqqfk-apu4N4fvQ_mor-7">
          <mxGeometry relative="1" as="geometry">
            <mxPoint x="1140" y="295" as="targetPoint" />
            <Array as="points">
              <mxPoint x="1060" y="270" />
              <mxPoint x="1140" y="270" />
            </Array>
          </mxGeometry>
        </mxCell>
        <mxCell id="Xcqqfk-apu4N4fvQ_mor-7" value="Modify Camera Input" style="rounded=1;whiteSpace=wrap;html=1;" vertex="1" parent="WIyWlLk6GJQsqaUBKTNV-1">
          <mxGeometry x="1000" y="190" width="120" height="60" as="geometry" />
        </mxCell>
        <mxCell id="Xcqqfk-apu4N4fvQ_mor-9" value="Impose Safety Mode Rules" style="rounded=1;whiteSpace=wrap;html=1;fontSize=12;glass=0;strokeWidth=1;shadow=0;" vertex="1" parent="WIyWlLk6GJQsqaUBKTNV-1">
          <mxGeometry x="850" y="410" width="120" height="40" as="geometry" />
        </mxCell>
        <mxCell id="Xcqqfk-apu4N4fvQ_mor-13" value="Controller" style="rounded=1;whiteSpace=wrap;html=1;fontSize=12;glass=0;strokeWidth=1;shadow=0;" vertex="1" parent="WIyWlLk6GJQsqaUBKTNV-1">
          <mxGeometry x="1020" y="540" width="80" height="40" as="geometry" />
        </mxCell>
        <mxCell id="Xcqqfk-apu4N4fvQ_mor-16" style="edgeStyle=orthogonalEdgeStyle;rounded=0;orthogonalLoop=1;jettySize=auto;html=1;exitX=1;exitY=0.5;exitDx=0;exitDy=0;entryX=0;entryY=0.5;entryDx=0;entryDy=0;" edge="1" parent="WIyWlLk6GJQsqaUBKTNV-1" source="Xcqqfk-apu4N4fvQ_mor-14" target="ZLk9EBdEhvnJCrL4KYB7-5">
          <mxGeometry relative="1" as="geometry" />
        </mxCell>
        <mxCell id="Xcqqfk-apu4N4fvQ_mor-14" value="LBC" style="rounded=1;whiteSpace=wrap;html=1;fontSize=12;glass=0;strokeWidth=1;shadow=0;" vertex="1" parent="WIyWlLk6GJQsqaUBKTNV-1">
          <mxGeometry x="510" y="290" width="80" height="40" as="geometry" />
        </mxCell>
        <mxCell id="Xcqqfk-apu4N4fvQ_mor-21" value="Image Vector" style="text;html=1;align=center;verticalAlign=middle;whiteSpace=wrap;rounded=0;" vertex="1" parent="WIyWlLk6GJQsqaUBKTNV-1">
          <mxGeometry x="550" y="160" width="90" height="30" as="geometry" />
        </mxCell>
        <mxCell id="Xcqqfk-apu4N4fvQ_mor-22" value="&amp;nbsp;Modified Vector" style="text;html=1;align=center;verticalAlign=middle;whiteSpace=wrap;rounded=0;" vertex="1" parent="WIyWlLk6GJQsqaUBKTNV-1">
          <mxGeometry x="550" y="260" width="90" height="30" as="geometry" />
        </mxCell>
        <mxCell id="Xcqqfk-apu4N4fvQ_mor-23" value="&amp;nbsp;Modified Vector" style="text;html=1;align=center;verticalAlign=middle;whiteSpace=wrap;rounded=0;" vertex="1" parent="WIyWlLk6GJQsqaUBKTNV-1">
          <mxGeometry x="630" y="190" width="90" height="30" as="geometry" />
        </mxCell>
        <mxCell id="Xcqqfk-apu4N4fvQ_mor-26" value="Action" style="text;html=1;align=center;verticalAlign=middle;whiteSpace=wrap;rounded=0;" vertex="1" parent="WIyWlLk6GJQsqaUBKTNV-1">
          <mxGeometry x="570" y="310" width="90" height="30" as="geometry" />
        </mxCell>
        <mxCell id="Xcqqfk-apu4N4fvQ_mor-27" value="Unmodified&lt;div&gt;Action&lt;/div&gt;" style="text;html=1;align=center;verticalAlign=middle;whiteSpace=wrap;rounded=0;" vertex="1" parent="WIyWlLk6GJQsqaUBKTNV-1">
          <mxGeometry x="670" y="460" width="90" height="30" as="geometry" />
        </mxCell>
        <mxCell id="Xcqqfk-apu4N4fvQ_mor-28" value="Modified Action" style="text;html=1;align=center;verticalAlign=middle;whiteSpace=wrap;rounded=0;" vertex="1" parent="WIyWlLk6GJQsqaUBKTNV-1">
          <mxGeometry x="555" y="460" width="80" height="30" as="geometry" />
        </mxCell>
      </root>
    </mxGraphModel>
  </diagram>
</mxfile>
